<?xml version="1.0" standalone="no"?>
<!DOCTYPE svg PUBLIC "-//W3C//DTD SVG 20010904//EN"
 "http://www.w3.org/TR/2001/REC-SVG-20010904/DTD/svg10.dtd">
<svg version="1.0" xmlns="http://www.w3.org/2000/svg"
 width="4546.000000pt" height="4546.000000pt" viewBox="0 0 4546.000000 4546.000000"
 preserveAspectRatio="xMidYMid meet">
<metadata>
Created by potrace 1.14, written by Peter Selinger 2001-2017
</metadata>
<g transform="translate(0.000000,4546.000000) scale(0.100000,-0.100000)"
fill="#000000" stroke="none">
<path d="M1130 22730 l0 -21600 21600 0 21600 0 0 21600 0 21600 -21600 0
-21600 0 0 -21600z m34125 19260 c427 -47 654 -203 755 -518 58 -178 65 -245
65 -592 0 -356 -6 -393 -83 -555 -86 -179 -344 -570 -802 -1215 -315 -445
-606 -859 -2600 -3700 -805 -1147 -1525 -2175 -1600 -2285 -1035 -1518 -1103
-1620 -1116 -1669 -8 -28 -19 -105 -24 -171 -6 -76 -10 -4887 -10 -13243 l0
-13124 2723 7 c1497 4 2817 6 2932 6 337 -2 554 -30 663 -85 90 -46 165 -155
197 -288 36 -147 42 -666 9 -836 -35 -188 -122 -278 -322 -335 l-77 -22
-13100 -3 c-11619 -2 -13110 0 -13187 13 -270 46 -480 213 -588 465 -79 187
-121 462 -101 671 19 200 59 341 150 534 91 190 175 321 441 680 86 116 218
300 295 410 129 185 1039 1481 1700 2420 155 220 587 834 960 1365 787 1120
1165 1656 1460 2075 116 165 465 660 775 1100 310 440 686 973 835 1185 478
677 721 1024 740 1053 l18 27 -3394 0 c-3702 0 -3465 -4 -3586 55 -107 53
-214 209 -281 412 -46 136 -64 246 -63 396 0 223 48 414 166 652 72 146 -103
-98 2114 2950 1118 1538 1611 2214 2761 3785 163 223 536 734 830 1135 294
402 649 888 790 1080 141 193 589 805 995 1360 406 556 847 1159 980 1340 625
854 1179 1611 1580 2160 241 330 554 758 695 950 141 193 521 712 845 1155
324 443 697 954 830 1135 277 378 1832 2505 2399 3280 209 286 428 585 486
665 118 160 236 323 1196 1640 363 498 664 911 668 918 6 10 -1460 12 -7466
12 -6509 0 -7482 2 -7541 15 -163 35 -255 110 -306 250 -53 147 -66 236 -65
465 0 229 14 331 65 485 80 239 196 329 449 344 189 12 23639 2 23745 -9z"/>
<path d="M28695 40408 c-163 -22 -224 -34 -237 -46 -9 -9 -229 -289 -489 -622
-305 -390 -645 -841 -958 -1270 -266 -366 -778 -1068 -1136 -1560 -1341 -1842
-1619 -2224 -2460 -3375 -1215 -1665 -1640 -2247 -1945 -2665 -146 -201 -493
-675 -770 -1055 -277 -379 -545 -746 -595 -815 -116 -159 -1574 -2157 -2179
-2985 -253 -346 -721 -988 -1040 -1425 -319 -437 -847 -1162 -1175 -1610 -327
-448 -654 -896 -726 -995 -123 -169 -344 -471 -650 -890 -1159 -1588 -1689
-2316 -1771 -2435 -56 -80 -340 -488 -633 -908 -292 -419 -531 -765 -531 -767
0 -3 1270 -5 2823 -5 l2822 -1 247 32 246 32 500 666 c342 456 671 911 1043
1441 816 1165 2311 3294 2875 4095 275 391 1868 2652 3539 5025 1671 2373
3403 4833 3848 5465 446 633 1428 2026 2183 3096 1141 1618 1464 2084 1923
2772 303 455 551 829 551 832 0 3 -1144 4 -2542 4 l-2543 -1 -220 -30z"/>
<path d="M27776 28569 c-382 -514 -808 -1108 -1340 -1864 -428 -610 -1209
-1722 -1734 -2470 -526 -748 -1219 -1736 -1542 -2195 -572 -814 -1905 -2714
-2005 -2858 -27 -39 -232 -331 -455 -649 -266 -379 -511 -743 -715 -1062
l-311 -486 4330 -3 c2381 -1 4331 -1 4333 1 2 2 2 2780 1 6172 l-3 6169 -559
-755z"/>
<path d="M18812 15349 c-139 -9 -235 -31 -329 -75 -109 -52 -187 -135 -328
-350 -170 -261 -195 -297 -700 -1014 -497 -705 -1006 -1429 -2175 -3095 -410
-583 -982 -1397 -1272 -1810 -617 -879 -2841 -4064 -2846 -4077 -2 -4 3862 -8
8587 -8 l8591 0 0 5220 0 5220 -4707 -1 c-2590 -1 -4759 -5 -4821 -10z"/>
</g>
</svg>
