<?xml version="1.0" standalone="no"?>
<!DOCTYPE svg PUBLIC "-//W3C//DTD SVG 20010904//EN"
 "http://www.w3.org/TR/2001/REC-SVG-20010904/DTD/svg10.dtd">
<svg version="1.0" xmlns="http://www.w3.org/2000/svg"
 width="4546.000000pt" height="4546.000000pt" viewBox="0 0 4546.000000 4546.000000"
 preserveAspectRatio="xMidYMid meet">
<metadata>
Created by potrace 1.14, written by Peter Selinger 2001-2017
</metadata>
<g transform="translate(0.000000,4546.000000) scale(0.100000,-0.100000)"
fill="#000000" stroke="none">
<path d="M11451 41989 c-260 -34 -381 -192 -437 -571 -21 -143 -15 -454 11
-568 55 -243 131 -333 328 -388 58 -16 513 -17 7549 -22 l7487 -5 -846 -1160
c-874 -1199 -3934 -5385 -4078 -5580 -272 -367 -8995 -12299 -9796 -13400
-2368 -3254 -2377 -3267 -2455 -3420 -122 -243 -167 -414 -168 -645 -1 -218
35 -374 131 -568 77 -157 170 -240 314 -279 60 -17 264 -18 3472 -23 l3408 -5
-1212 -1720 c-1432 -2032 -4658 -6618 -5108 -7260 -173 -247 -391 -553 -483
-678 -262 -354 -379 -540 -457 -727 -138 -331 -158 -651 -61 -995 68 -244 207
-422 403 -519 108 -53 177 -72 313 -86 69 -7 4100 -10 13124 -7 11929 2 13031
4 13100 19 223 48 318 132 367 324 26 104 26 690 0 813 -34 155 -108 275 -199
322 -50 26 -179 55 -303 69 -74 9 -877 12 -3057 10 l-2958 -1 0 13194 c0
11800 2 13204 15 13283 11 62 25 104 45 137 158 256 1532 2238 3110 4487 1060
1510 1978 2817 2041 2905 334 465 653 930 787 1146 172 277 213 381 233 589
14 141 6 454 -17 599 -72 480 -318 686 -868 731 -157 12 -23637 12 -23735 -1z
m22559 -1554 c0 -3 -242 -368 -538 -813 -445 -666 -788 -1160 -1963 -2827
-784 -1111 -1667 -2364 -1964 -2785 -296 -421 -665 -945 -820 -1165 -156 -220
-1011 -1435 -1902 -2700 -891 -1265 -1705 -2421 -1809 -2570 -2554 -3626
-3796 -5391 -4255 -6045 -2277 -3243 -2281 -3249 -2749 -3870 -254 -338 -464
-617 -465 -618 -2 -2 -101 -17 -220 -33 l-216 -29 -2860 2 -2860 3 659 945
c522 749 953 1349 2082 2895 783 1073 1892 2591 2464 3375 4716 6462 4449
6096 4584 6280 188 254 3523 4829 4892 6709 1230 1688 1478 2023 1893 2554
263 337 485 618 492 626 9 10 84 24 212 42 l198 26 2573 2 c1414 0 2572 -1
2572 -4z m-5670 -17280 l0 -6175 -4335 0 c-2384 0 -4335 2 -4335 5 0 3 136
218 301 478 199 312 440 668 708 1050 223 318 449 640 500 715 52 75 864 1233
1805 2572 940 1339 2272 3236 2960 4215 987 1406 1369 1941 1818 2548 313 422
571 767 574 767 2 0 4 -2779 4 -6175z m0 -13015 l0 -5220 -8596 0 c-6873 0
-8594 3 -8588 13 62 102 4177 5975 6098 8702 379 539 738 1054 797 1145 164
254 219 329 284 395 63 63 165 124 245 145 141 39 42 38 4983 39 l4777 1 0
-5220z"/>
</g>
</svg>
